<svg width="948" height="753" viewBox="0 0 948 753" fill="none" xmlns="http://www.w3.org/2000/svg">
<path d="M270.772 151.938C311.586 146.281 401.711 112.506 435.695 22.6609C478.175 -89.6461 -57.5752 644.094 18.3894 731.444C94.354 818.794 314.251 299.685 260.276 257.757C206.302 215.829 272.378 269.237 359.837 235.794C447.297 202.352 529.259 158.741 478.175 173.402C434.695 185.88 339.447 231.602 343.845 288.703C348.243 345.805 453.54 269.736 474.284 218.324C495.028 166.913 430.497 294.294 451.687 292.697C472.877 291.099 522.762 225.312 555.246 225.312L893.955 215.41" stroke="black" stroke-width="22" stroke-linecap="round"/>
<path d="M934 212.508C946 212.508 928.166 212.508 936.499 212.508" stroke="black" stroke-width="23" stroke-linecap="round"/>
</svg>
